<svg xmlns="http://www.w3.org/2000/svg" xmlns:xlink="http://www.w3.org/1999/xlink" width="27" height="22" viewBox="0 0 27 22">
  <defs>
    <clipPath id="clip-path">
      <rect id="Rectangle_1476" data-name="Rectangle 1476" width="27" height="22" transform="translate(0 0)" fill="#5f5f5f" stroke="#707070" stroke-width="1"/>
    </clipPath>
  </defs>
  <g id="Mask_Group_112" data-name="Mask Group 112" transform="translate(0 0)" clip-path="url(#clip-path)">
    <g id="kitchen-table" transform="translate(1.159 1.728)">
      <g id="Group_535" data-name="Group 535" transform="translate(0 0)">
        <g id="Group_534" data-name="Group 534">
          <path id="Path_2123" data-name="Path 2123" d="M7.445,14.928h.363a.411.411,0,0,0,.411-.411V12.874a1.233,1.233,0,0,0-1.233-1.233H2.466V3.011A.411.411,0,0,0,2.055,2.6H.411A.411.411,0,0,0,0,3.011V14.517a.411.411,0,0,0,.411.411H.774L0,21.869a.411.411,0,0,0,.363.454l.045,0H1.644a.411.411,0,0,0,.408-.366l.783-7.031H5.388l.781,7.031a.411.411,0,0,0,.407.366H7.808a.411.411,0,0,0,.411-.411.4.4,0,0,0,0-.045ZM1.276,21.5H.87L1.6,14.928h.406Zm5.669,0-.733-6.575h.406L7.349,21.5Zm.452-7.4H.822V3.422h.822v8.63a.411.411,0,0,0,.411.411H6.986a.411.411,0,0,1,.411.411Z" transform="translate(0 -2.6)" fill="#5f5f5f"/>
          <path id="Path_2124" data-name="Path 2124" d="M25.55,21.869l-.771-6.941h.363a.411.411,0,0,0,.411-.411V3.011a.411.411,0,0,0-.411-.411H23.5a.411.411,0,0,0-.411.411v8.63h-4.52a1.233,1.233,0,0,0-1.233,1.233v1.644a.411.411,0,0,0,.411.411h.363l-.771,6.941a.411.411,0,0,0,.363.454l.045,0h1.233a.411.411,0,0,0,.408-.366l.783-7.031h2.552L23.5,21.96a.411.411,0,0,0,.407.366h1.233a.411.411,0,0,0,.411-.411A.4.4,0,0,0,25.55,21.869ZM18.607,21.5H18.2l.735-6.575h.406Zm5.671,0-.733-6.575h.406L24.68,21.5Zm.452-7.4H18.155V12.874a.411.411,0,0,1,.411-.411H23.5a.411.411,0,0,0,.411-.411V3.422h.822Z" transform="translate(-0.895 -2.6)" fill="#5f5f5f"/>
          <path id="Path_2125" data-name="Path 2125" d="M18.828,9.855V8.211a.411.411,0,0,0-.411-.411H6.911a.411.411,0,0,0-.411.411V9.855a.411.411,0,0,0,.411.411H11.02V22.183a.411.411,0,0,0,.411.411H13.9a.411.411,0,0,0,.411-.411V10.266h4.109A.411.411,0,0,0,18.828,9.855ZM13.486,21.772H11.842V10.266h1.644Zm4.52-12.328H7.322V8.622H18.006Z" transform="translate(-0.336 -2.869)" fill="#5f5f5f"/>
        </g>
      </g>
    </g>
  </g>
</svg>
