<svg xmlns="http://www.w3.org/2000/svg" xmlns:xlink="http://www.w3.org/1999/xlink" width="27" height="22" viewBox="0 0 27 22">
  <defs>
    <clipPath id="clip-path">
      <rect id="Rectangle_1476" data-name="Rectangle 1476" width="27" height="22" transform="translate(0 0)" fill="#fff" stroke="#fff" stroke-width="1"/>
    </clipPath>
  </defs>
  <g id="Mask_Group_112" data-name="Mask Group 112" transform="translate(0)" clip-path="url(#clip-path)">
    <g id="kitchen-table" transform="translate(1.159 1.728)">
      <g id="Group_535" data-name="Group 535" transform="translate(0 0)">
        <g id="Group_534" data-name="Group 534">
          <path id="Path_2123" data-name="Path 2123" d="M5.753,12.126h.28a.318.318,0,0,0,.318-.318v-1.27A.953.953,0,0,0,5.4,9.586H1.905V2.918A.318.318,0,0,0,1.588,2.6H.318A.318.318,0,0,0,0,2.918v8.891a.318.318,0,0,0,.318.318H.6L0,17.49a.318.318,0,0,0,.281.351l.035,0H1.27a.318.318,0,0,0,.316-.283l.605-5.433H4.163l.6,5.433a.318.318,0,0,0,.314.283h.953a.318.318,0,0,0,.318-.318.312.312,0,0,0,0-.035ZM.986,17.207H.672l.566-5.081h.314Zm4.381,0L4.8,12.126h.314l.565,5.081Zm.349-5.716H.635V3.235H1.27V9.9a.318.318,0,0,0,.318.318H5.4a.318.318,0,0,1,.318.318Z" transform="translate(0 -2.6)" fill="#fff"/>
          <path id="Path_2124" data-name="Path 2124" d="M23.682,17.49l-.6-5.363h.28a.318.318,0,0,0,.318-.318V2.918a.318.318,0,0,0-.318-.318H22.1a.318.318,0,0,0-.318.318V9.586H18.286a.953.953,0,0,0-.953.953v1.27a.318.318,0,0,0,.318.318h.28l-.6,5.363a.318.318,0,0,0,.281.351l.035,0H18.6a.318.318,0,0,0,.316-.283l.605-5.433H21.5l.6,5.433a.318.318,0,0,0,.314.283h.953a.318.318,0,0,0,.318-.318A.313.313,0,0,0,23.682,17.49Zm-5.365-.283H18l.568-5.081h.314Zm4.382,0-.566-5.081h.314l.563,5.081Zm.349-5.716H17.968v-.953a.318.318,0,0,1,.318-.318H22.1a.318.318,0,0,0,.318-.318V3.235h.635Z" transform="translate(-4.632 -2.6)" fill="#fff"/>
          <path id="Path_2125" data-name="Path 2125" d="M16.026,9.388V8.118a.318.318,0,0,0-.318-.318H6.818a.318.318,0,0,0-.318.318v1.27a.318.318,0,0,0,.318.318H9.993v9.209a.318.318,0,0,0,.318.318h1.905a.318.318,0,0,0,.318-.318V9.705h3.175A.318.318,0,0,0,16.026,9.388ZM11.9,18.6h-1.27V9.705H11.9ZM15.391,9.07H7.135V8.435h8.256Z" transform="translate(-1.737 -3.989)" fill="#fff"/>
        </g>
      </g>
    </g>
  </g>
</svg>
