<svg id="scooter" xmlns="http://www.w3.org/2000/svg" width="19.05" height="16.563" viewBox="0 0 19.05 16.563">
  <path id="Path_2113" data-name="Path 2113" d="M18.213,10.225H13.482a1.369,1.369,0,0,1-1.367-1.368V4.309a1.4,1.4,0,0,1,1.4-1.4h4.7a1.4,1.4,0,0,1,1.4,1.4v4.52a1.4,1.4,0,0,1-1.4,1.4Zm-4.7-6.736a.82.82,0,0,0-.819.819V8.858a.791.791,0,0,0,.79.79h4.731a.82.82,0,0,0,.819-.819V4.309a.82.82,0,0,0-.819-.819Z" transform="translate(-0.56 -2.912)" fill="#5f5f5f"/>
  <path id="Path_2114" data-name="Path 2114" d="M16.605,11.876H11.416a.289.289,0,0,1-.289-.289V10.28a1.359,1.359,0,0,1,1.357-1.357h4.121a1.359,1.359,0,0,1,1.357,1.357v.239a1.359,1.359,0,0,1-1.357,1.357ZM11.7,11.3h4.9a.779.779,0,0,0,.779-.779v-.239a.779.779,0,0,0-.779-.779H12.484a.779.779,0,0,0-.779.779Z" transform="translate(-0.679 -2.188)" fill="#5f5f5f"/>
  <path id="Path_2115" data-name="Path 2115" d="M19.037,16.131H6.312a.289.289,0,1,1,0-.577H19.037a.73.73,0,0,0,.729-.709,3.66,3.66,0,0,0-2.606-3.23.289.289,0,0,1,.119-.565,4.3,4.3,0,0,1,3.061,3.732.3.3,0,0,1,0,.043A1.308,1.308,0,0,1,19.037,16.131Z" transform="translate(-1.294 -1.932)" fill="#5f5f5f"/>
  <path id="Path_2116" data-name="Path 2116" d="M11.416,16.131a.289.289,0,0,1-.225-.469,3.087,3.087,0,0,0,.014-4.133.289.289,0,0,1,.422-.394,3.718,3.718,0,0,1,.014,4.888A.289.289,0,0,1,11.416,16.131Z" transform="translate(-0.679 -1.932)" fill="#5f5f5f"/>
  <path id="Path_2117" data-name="Path 2117" d="M14.66,17.9a2.548,2.548,0,0,1-2.545-2.545.289.289,0,0,1,.577,0,1.968,1.968,0,1,0,3.936,0,.289.289,0,0,1,.577,0A2.548,2.548,0,0,1,14.66,17.9Z" transform="translate(-0.56 -1.447)" fill="#5f5f5f"/>
  <path id="Path_2119" data-name="Path 2119" d="M4.458,18.264a2.653,2.653,0,1,1,2.651-2.655A2.653,2.653,0,0,1,4.458,18.264Zm0-4.728a2.076,2.076,0,1,0,2.073,2.073,2.076,2.076,0,0,0-2.073-2.073Z" transform="translate(-1.803 -1.701)" fill="#5f5f5f"/>
  <path id="Path_2120" data-name="Path 2120" d="M8.856,16.129a.289.289,0,0,1-.275-.375,3.175,3.175,0,1,0-6.2-.963,2.36,2.36,0,0,0,.046.5.276.276,0,0,1,.006.059.289.289,0,0,1-.576.04,3,3,0,0,1-.055-.6,3.752,3.752,0,1,1,7.328,1.137A.289.289,0,0,1,8.856,16.129Z" transform="translate(-1.803 -1.932)" fill="#5f5f5f"/>
  <path id="Path_2121" data-name="Path 2121" d="M8.646,15.574a.289.289,0,0,1-.289-.289V9.906A2.367,2.367,0,0,0,6.51,7.557l-.019,0L5.463,11.893A.289.289,0,1,1,4.9,11.76L5.988,7.168a.284.284,0,0,1,.3-.221,3.213,3.213,0,0,1,.321.042A2.913,2.913,0,0,1,8.935,9.906v5.38A.289.289,0,0,1,8.646,15.574Z" transform="translate(-1.43 -2.426)" fill="#5f5f5f"/>
  <path id="Path_2122" data-name="Path 2122" d="M9.832,7.778H5.183a.289.289,0,0,1-.289-.289V5.123a.289.289,0,0,1,.289-.289h.972A1.643,1.643,0,0,1,7.8,6.476V7.2H9.832a.289.289,0,1,1,0,.577ZM5.471,7.2H7.219V6.477A1.066,1.066,0,0,0,6.154,5.412H5.471Z" transform="translate(-1.43 -2.681)" fill="#5f5f5f"/>
</svg>
