<svg xmlns="http://www.w3.org/2000/svg" xmlns:xlink="http://www.w3.org/1999/xlink" width="19" height="20" viewBox="0 0 19 20">
  <defs>
    <clipPath id="clip-path">
      <rect id="Rectangle_1477" data-name="Rectangle 1477" width="19" height="20" transform="translate(0.364 -0.159)" fill="#fff" stroke="#707070" stroke-width="1"/>
    </clipPath>
  </defs>
  <g id="Mask_Group_113" data-name="Mask Group 113" transform="translate(-0.364 0.159)" clip-path="url(#clip-path)">
    <g id="shopping-bag" transform="translate(2.023 0)">
      <g id="Group_537" data-name="Group 537" transform="translate(0)">
        <g id="Group_536" data-name="Group 536">
          <path id="Path_2126" data-name="Path 2126" d="M17.657,16.112,16.784,5.117a1.374,1.374,0,0,0-1.364-1.263H13.7V3.777a3.777,3.777,0,1,0-7.553,0v.077H4.42A1.374,1.374,0,0,0,3.057,5.116l-.873,11a3.181,3.181,0,0,0,3.172,3.425h9.129a3.181,3.181,0,0,0,3.172-3.426ZM7.288,3.777a2.632,2.632,0,1,1,5.264,0v.077H7.288Zm8.691,13.964a2.016,2.016,0,0,1-1.494.653H5.356A2.037,2.037,0,0,1,3.325,16.2L4.2,5.2A.224.224,0,0,1,4.42,5H6.144V6.408a.572.572,0,1,0,1.144,0V5h5.264V6.408a.572.572,0,1,0,1.144,0V5h1.723a.225.225,0,0,1,.223.208L16.516,16.2A2.016,2.016,0,0,1,15.979,17.741Z" transform="translate(-2.175)" fill="#fff"/>
        </g>
      </g>
    </g>
  </g>
</svg>
