<svg xmlns="http://www.w3.org/2000/svg" xmlns:xlink="http://www.w3.org/1999/xlink" width="49" height="49" viewBox="0 0 49 49">
  <defs>
    <clipPath id="clip-path">
      <rect id="Rectangle_1714" data-name="Rectangle 1714" width="36" height="32" transform="translate(24 29)" fill="#fff" stroke="#707070" stroke-width="1"/>
    </clipPath>
  </defs>
  <circle id="Ellipse_219" data-name="Ellipse 219" cx="24.5" cy="24.5" r="24.5" fill="#f5f3f0"/>
  <g id="Mask_Group_185" data-name="Mask Group 185" transform="translate(-14 -20)" clip-path="url(#clip-path)">
    <g id="shopping-bag_2_" data-name="shopping-bag (2)" transform="translate(26.322 29)">
      <path id="Path_2388" data-name="Path 2388" d="M27.456,31.486a2.435,2.435,0,0,1-2.489,2.306H3.766a2.434,2.434,0,0,1-2.488-2.306A58.988,58.988,0,0,1,4.459,10.4a2.216,2.216,0,0,1,2.1-1.424H22.173a2.216,2.216,0,0,1,2.1,1.424,53.95,53.95,0,0,1,2.359,9.238A61.518,61.518,0,0,1,27.456,31.486Z" transform="translate(-1.254 -1.797)" fill="#db5c6e"/>
      <path id="Path_2389" data-name="Path 2389" d="M28.87,34.154a2.435,2.435,0,0,1-2.489,2.306H14.635A2.048,2.048,0,0,1,12.8,35.367a24.225,24.225,0,0,1-2.538-11.15A1.991,1.991,0,0,1,12.3,22.308H28.048A61.513,61.513,0,0,1,28.87,34.154Z" transform="translate(-2.668 -4.464)" fill="#d64553"/>
      <path id="Path_2390" data-name="Path 2390" d="M8.716,8.977A1.707,1.707,0,0,0,7.194,10.4a79.608,79.608,0,0,0-2.3,21.085,2.126,2.126,0,0,0,1.8,2.306H3.766a2.434,2.434,0,0,1-2.488-2.306A58.992,58.992,0,0,1,4.458,10.4a2.216,2.216,0,0,1,2.1-1.424Z" transform="translate(-1.254 -1.797)" fill="#d64553"/>
      <path id="Path_2391" data-name="Path 2391" d="M20.949,13.213a1.073,1.073,0,0,1-1.1-1.044V6.11a4.14,4.14,0,0,0-4.24-4.023A4.14,4.14,0,0,0,11.37,6.11v6.059a1.1,1.1,0,0,1-2.2,0V6.11A6.289,6.289,0,0,1,15.609,0a6.289,6.289,0,0,1,6.44,6.11v6.059A1.073,1.073,0,0,1,20.949,13.213Z" transform="translate(-2.497 0)" fill="#407093"/>
      <g id="Group_651" data-name="Group 651" transform="translate(6.673)">
        <path id="Path_2392" data-name="Path 2392" d="M22.276,12.691V6.633a4.14,4.14,0,0,0-4.24-4.023,4.483,4.483,0,0,0-.561.036,4.106,4.106,0,0,1,3.678,3.986v6.059a1.073,1.073,0,0,0,1.1,1.044,1.138,1.138,0,0,0,.561-.147,1.033,1.033,0,0,1-.539-.9Z" transform="translate(-10.473 -0.522)" fill="#365e7d"/>
        <path id="Path_2393" data-name="Path 2393" d="M10.292,12.169V6.11A6.256,6.256,0,0,1,16.171.023C15.986.008,15.8,0,15.609,0a6.289,6.289,0,0,0-6.44,6.11v6.059a1.073,1.073,0,0,0,1.1,1.044,1.138,1.138,0,0,0,.561-.147A1.033,1.033,0,0,1,10.292,12.169Z" transform="translate(-9.169 0)" fill="#365e7d"/>
      </g>
      <path id="Path_2394" data-name="Path 2394" d="M15.2,35.367a24.236,24.236,0,0,1-2.538-11.15A1.99,1.99,0,0,1,14.7,22.308H32.612a1.99,1.99,0,0,1,2.037,1.909,24.237,24.237,0,0,1-2.538,11.15,2.048,2.048,0,0,1-1.834,1.093H17.038A2.048,2.048,0,0,1,15.2,35.367Z" transform="translate(-3.045 -4.464)" fill="#ffd064"/>
      <path id="Path_2395" data-name="Path 2395" d="M19.1,36.459H17.038A2.049,2.049,0,0,1,15.2,35.367a24.243,24.243,0,0,1-2.538-11.15A1.991,1.991,0,0,1,14.7,22.308h2.79c-.767,0-1.391.851-1.4,1.909a33.4,33.4,0,0,0,1.747,11.15A1.442,1.442,0,0,0,19.1,36.459Z" transform="translate(-3.045 -4.464)" fill="#ffc250"/>
      <path id="Path_2396" data-name="Path 2396" d="M25.269,32.109A4.4,4.4,0,0,1,20.76,27.83V25.667a.885.885,0,0,1,1.767,0V27.83a2.745,2.745,0,0,0,5.483,0V25.667a.885.885,0,0,1,1.767,0V27.83A4.4,4.4,0,0,1,25.269,32.109Z" transform="translate(-4.317 -4.969)" fill="#407093"/>
      <g id="Group_652" data-name="Group 652" transform="translate(16.443 19.86)">
        <path id="Path_2397" data-name="Path 2397" d="M27.012,30.432a2.677,2.677,0,0,0,2.741-2.6V25.667a.834.834,0,0,1,.47-.741.917.917,0,0,0-.413-.1.862.862,0,0,0-.884.838v2.163A2.652,2.652,0,0,1,26.6,30.4,2.905,2.905,0,0,0,27.012,30.432Z" transform="translate(-21.676 -24.829)" fill="#365e7d"/>
        <path id="Path_2398" data-name="Path 2398" d="M21.586,27.83V25.667a.834.834,0,0,1,.47-.741.917.917,0,0,0-.413-.1.862.862,0,0,0-.884.838v2.163a4.4,4.4,0,0,0,4.509,4.278c.139,0,.277-.007.413-.019a4.378,4.378,0,0,1-4.1-4.259Z" transform="translate(-20.76 -24.829)" fill="#365e7d"/>
      </g>
    </g>
  </g>
</svg>
