<svg xmlns="http://www.w3.org/2000/svg" xmlns:xlink="http://www.w3.org/1999/xlink" width="49" height="49" viewBox="0 0 49 49">
  <defs>
    <clipPath id="clip-path">
      <rect id="Rectangle_1715" data-name="Rectangle 1715" width="34" height="33" transform="translate(24 27)" fill="#fff" stroke="#707070" stroke-width="1"/>
    </clipPath>
  </defs>
  <circle id="Ellipse_219" data-name="Ellipse 219" cx="24.5" cy="24.5" r="24.5" fill="#f5f3f0"/>
  <g id="Mask_Group_186" data-name="Mask Group 186" transform="translate(-16 -19)" clip-path="url(#clip-path)">
    <g id="dinner-table" transform="translate(25.132 27)">
      <g id="Group_653" data-name="Group 653" transform="translate(0.619 3.244)">
        <path id="Path_2399" data-name="Path 2399" d="M39.572,21v2.6H34.617V21Z" transform="translate(-9.102 -7.633)" fill="#8690a6"/>
        <path id="Path_2400" data-name="Path 2400" d="M31.683,23.522a1.269,1.269,0,0,1-1.239,1.3H23.879a1.269,1.269,0,0,1-1.239-1.3V15.735a1.269,1.269,0,0,1,1.239-1.3h6.565a1.269,1.269,0,0,1,1.239,1.3Z" transform="translate(-6.167 -6.261)" fill="#ff7b79"/>
        <path id="Path_2401" data-name="Path 2401" d="M30.444,30.844a1.3,1.3,0,0,1,0,2.6H23.879a1.3,1.3,0,0,1,0-2.6Z" transform="translate(-6.167 -9.69)" fill="#ff7b79"/>
        <path id="Path_2402" data-name="Path 2402" d="M23.51,7.995H16.078a3.72,3.72,0,1,1,7.432,0Z" transform="translate(-4.559 -4.102)" fill="#ffda8f"/>
        <path id="Path_2403" data-name="Path 2403" d="M19.359,21h2.477v2.6H19.359Z" transform="translate(-5.363 -7.633)" fill="#8690a6"/>
        <path id="Path_2404" data-name="Path 2404" d="M16.425,23.522a1.269,1.269,0,0,1-1.239,1.3H8.621a1.269,1.269,0,0,1-1.239-1.3V15.735a1.269,1.269,0,0,1,1.239-1.3h6.565a1.269,1.269,0,0,1,1.239,1.3Z" transform="translate(-2.428 -6.261)" fill="#b3f1ff"/>
        <path id="Path_2405" data-name="Path 2405" d="M15.186,30.844a1.3,1.3,0,0,1,0,2.6H8.621a1.3,1.3,0,0,1,0-2.6Z" transform="translate(-2.428 -9.69)" fill="#b3f1ff"/>
        <path id="Path_2406" data-name="Path 2406" d="M5.775,21v2.6H.82V21Z" transform="translate(-0.82 -7.633)" fill="#8690a6"/>
      </g>
      <g id="Group_654" data-name="Group 654">
        <path id="Path_2407" data-name="Path 2407" d="M31.089,18.808H26.754V15.564A1.906,1.906,0,0,0,24.9,13.617h-.5a.65.65,0,0,0,0,1.3h.5a.635.635,0,0,1,.619.649v7.787A.635.635,0,0,1,24.9,24H18.332a.635.635,0,0,1-.619-.649V15.564a.635.635,0,0,1,.619-.649h.5a.65.65,0,0,0,0-1.3h-.5a1.906,1.906,0,0,0-1.858,1.947v3.244H15.235V15.564a1.906,1.906,0,0,0-1.858-1.947H6.812a1.906,1.906,0,0,0-1.858,1.947v3.244H.619A.635.635,0,0,0,0,19.457v2.6a.635.635,0,0,0,.619.649H2.477V35.42a.62.62,0,1,0,1.239,0V22.7H4.954v.649a1.946,1.946,0,0,0,1.239,1.835v1.521a1.979,1.979,0,0,0,0,3.67V35.42a.62.62,0,1,0,1.239,0V30.488h5.326V35.42a.62.62,0,1,0,1.239,0V30.377a1.979,1.979,0,0,0,0-3.67V25.186a1.946,1.946,0,0,0,1.239-1.835V22.7h1.239v.649a1.946,1.946,0,0,0,1.239,1.835v1.521a1.979,1.979,0,0,0,0,3.67V35.42a.62.62,0,1,0,1.239,0V30.488h5.326V35.42a.62.62,0,1,0,1.239,0V30.377a1.979,1.979,0,0,0,0-3.67V25.186a1.946,1.946,0,0,0,1.239-1.835V22.7h1.239V35.42a.62.62,0,1,0,1.239,0V22.7h1.858a.635.635,0,0,0,.619-.649v-2.6A.635.635,0,0,0,31.089,18.808ZM18.951,26.595V25.3h5.326v1.3ZM1.239,21.4v-1.3H4.954v1.3ZM12.758,25.3v1.3H7.432V25.3Zm.619,3.893H6.812a.65.65,0,0,1,0-1.3h6.565a.65.65,0,0,1,0,1.3ZM14,23.351a.635.635,0,0,1-.619.649H6.812a.635.635,0,0,1-.619-.649V15.564a.635.635,0,0,1,.619-.649h6.565a.635.635,0,0,1,.619.649ZM15.235,21.4v-1.3h1.239v1.3ZM24.9,29.191H18.332a.65.65,0,0,1,0-1.3H24.9a.65.65,0,0,1,0,1.3ZM30.47,21.4H26.754v-1.3H30.47Z" transform="translate(0 -2.846)"/>
        <path id="Path_2408" data-name="Path 2408" d="M26.83,19.21a.671.671,0,0,0,0,.918l.438.459-.438.459a.671.671,0,0,0,0,.918.6.6,0,0,0,.876,0l.438-.459.438.459a.6.6,0,0,0,.876,0,.671.671,0,0,0,0-.918l-.438-.459.438-.459a.671.671,0,0,0,0-.918.6.6,0,0,0-.876,0l-.438.459-.438-.459A.6.6,0,0,0,26.83,19.21Z" transform="translate(-6.53 -3.975)"/>
        <path id="Path_2409" data-name="Path 2409" d="M15.258,7.138a.635.635,0,0,0,.619.649h7.432a.635.635,0,0,0,.619-.649,4.486,4.486,0,0,0-3.716-4.5V1.3H22.07A.635.635,0,0,0,22.69.649.635.635,0,0,0,22.07,0H17.116A.635.635,0,0,0,16.5.649a.635.635,0,0,0,.619.649h1.858V2.643A4.486,4.486,0,0,0,15.258,7.138Zm7.37-.649H16.559a3.071,3.071,0,0,1,6.069,0Z" transform="translate(-3.739 0)"/>
        <ellipse id="Ellipse_346" data-name="Ellipse 346" cx="0.619" cy="0.649" rx="0.619" ry="0.649" transform="translate(20.995 10.772)"/>
      </g>
    </g>
  </g>
</svg>
