<svg xmlns="http://www.w3.org/2000/svg" xmlns:xlink="http://www.w3.org/1999/xlink" width="21" height="21" viewBox="0 0 21 21">
  <defs>
    <clipPath id="clip-path">
      <rect id="Rectangle_1478" data-name="Rectangle 1478" width="21" height="21" transform="translate(330 767)" fill="#fff" stroke="#5f5f5f" stroke-width="1"/>
    </clipPath>
  </defs>
  <g id="Mask_Group_114" data-name="Mask Group 114" transform="translate(-330 -767)" clip-path="url(#clip-path)">
    <path id="user" d="M17.925,3.075A10.5,10.5,0,0,0,3.075,17.925,10.5,10.5,0,0,0,17.925,3.075ZM5.264,18.145a5.317,5.317,0,0,1,10.472,0,9.249,9.249,0,0,1-10.472,0Zm1.9-8.963A3.339,3.339,0,1,1,10.5,12.521,3.342,3.342,0,0,1,7.161,9.182Zm9.64,8.109a6.558,6.558,0,0,0-3.812-4.28,4.569,4.569,0,1,0-4.979,0A6.557,6.557,0,0,0,4.2,17.291a9.269,9.269,0,1,1,12.6,0Zm0,0" transform="translate(330 767)" fill="#5f5f5f"/>
  </g>
</svg>
