<svg xmlns="http://www.w3.org/2000/svg" xmlns:xlink="http://www.w3.org/1999/xlink" width="16" height="16" viewBox="0 0 16 16">
  <defs>
    <clipPath id="clip-path">
      <rect id="Rectangle_1478" data-name="Rectangle 1478" width="16" height="16" transform="translate(330 767)" fill="#fff" stroke="#5f5f5f" stroke-width="1"/>
    </clipPath>
  </defs>
  <g id="Mask_Group_114" data-name="Mask Group 114" transform="translate(-330 -767)" clip-path="url(#clip-path)">
    <path id="user" d="M13.657,2.343A8,8,0,0,0,2.343,13.657,8,8,0,0,0,13.657,2.343ZM4.011,13.825a4.051,4.051,0,0,1,7.979,0,7.047,7.047,0,0,1-7.979,0ZM5.456,7A2.544,2.544,0,1,1,8,9.54,2.547,2.547,0,0,1,5.456,7ZM12.8,13.174A5,5,0,0,0,9.9,9.913a3.481,3.481,0,1,0-3.794,0,5,5,0,0,0-2.9,3.261,7.062,7.062,0,1,1,9.6,0Zm0,0" transform="translate(330 767)" fill="#fff"/>
  </g>
</svg>
